<svg id="Image" xmlns="http://www.w3.org/2000/svg"  viewBox="0 0 24 24">
  <g id="g946">
    <path id="rect830" d="M1,1V8H8V1ZM2,2H7V7H2Z" class="aw-theme-iconOutline" fill="#464646"/>
    <path id="rect848" d="M3,3H6V6H3Z" class="aw-theme-iconOutline" fill="#464646"/>
    <path id="rect830-5" d="M1,16v7H8V16Zm1,1H7v5H2Z" class="aw-theme-iconOutline" fill="#464646"/>
    <path id="rect848-2" d="M3,18H6v3H3Z" class="aw-theme-iconOutline" fill="#464646"/>
    <path id="rect830-5-3" d="M16,1V8h7V1Zm1,1h5V7H17Z" class="aw-theme-iconOutline" fill="#464646"/>
    <path id="rect848-2-4" d="M18,3h3V6H18Z" class="aw-theme-iconOutline" fill="#464646"/>
    <path id="rect830-5-3-5" d="M16,16v7h7V16Zm1,1h5v5H17Z" class="aw-theme-iconOutline" fill="#464646"/>
    <path id="rect848-2-4-7" d="M18,18h3v3H18Z" class="aw-theme-iconOutline" fill="#464646"/>
    <path id="rect904" d="M10,2h1V9H10Z" class="aw-theme-iconOutline" fill="#464646"/>
    <path id="rect906" d="M4,13H9v1H4Z" class="aw-theme-iconOutline" fill="#464646"/>
    <path id="rect908" d="M13,15h1v8H13Z" class="aw-theme-iconOutline" fill="#464646"/>
    <path id="rect910" d="M15,11h7v1H15Z" class="aw-theme-iconOutline" fill="#464646"/>
    <path id="rect912" d="M19,10h1v1H19Z" class="aw-theme-iconOutline" fill="#464646"/>
    <path id="rect912-7" d="M13,3h1V4H13Z" class="aw-theme-iconOutline" fill="#464646"/>
    <path id="rect912-9" d="M12,5h1V6H12Z" class="aw-theme-iconOutline" fill="#464646"/>
    <path id="rect912-2" d="M11,8h1V9H11Z" class="aw-theme-iconOutline" fill="#464646"/>
    <path id="rect912-93" d="M8,12H9v1H8Z" class="aw-theme-iconOutline" fill="#464646"/>
    <path id="rect912-3" d="M3,12H4v1H3Z" class="aw-theme-iconOutline" fill="#464646"/>
    <path id="rect912-0" d="M2,11H3v1H2Z" class="aw-theme-iconOutline" fill="#464646"/>
    <path id="rect912-8" d="M12,9h1v1H12Z" class="aw-theme-iconOutline" fill="#464646"/>
    <path id="rect912-03" d="M12,16h1v1H12Z" class="aw-theme-iconOutline" fill="#464646"/>
    <path id="rect912-6" d="M14,20h1v1H14Z" class="aw-theme-iconOutline" fill="#464646"/>
    <path id="rect912-5" d="M11,17h1v1H11Z" class="aw-theme-iconOutline" fill="#464646"/>
    <path id="rect912-37" d="M10,18h1v1H10Z" class="aw-theme-iconOutline" fill="#464646"/>
    <path id="rect912-08" d="M13.036,6.065h1v1h-1Z" class="aw-theme-iconOutline" fill="#464646"/>
    <path id="rect912-1" d="M16,12h1v1H16Z" class="aw-theme-iconOutline" fill="#464646"/>
    <path id="rect912-04" d="M17,13h1v1H17Z" class="aw-theme-iconOutline" fill="#464646"/>
    <path id="rect1007" d="M5,10H7v1H5Z" class="aw-theme-iconOutline" fill="#464646"/>
    <path id="rect1007-4" d="M2,9H4v1H2Z" class="aw-theme-iconOutline" fill="#464646"/>
    <path id="rect1007-1" d="M11,12h2v1H11Z" class="aw-theme-iconOutline" fill="#464646"/>
    <path id="rect1007-0" d="M11,21h2v1H11Z" class="aw-theme-iconOutline" fill="#464646"/>
    <path id="rect1007-3" d="M15,9h2v1H15Z" class="aw-theme-iconOutline" fill="#464646"/>
    <path id="rect1007-39" d="M11,2h2V3H11Z" class="aw-theme-iconOutline" fill="#464646"/>
    <path id="rect1007-5" d="M8,14h2v1H8Z" class="aw-theme-iconOutline" fill="#464646"/>
    <path id="rect1007-32" d="M20,13h2v1H20Z" class="aw-theme-iconOutline" fill="#464646"/>
    <path id="rect1007-32-1" d="M14,9V7h1V9Z" class="aw-theme-iconOutline" fill="#464646"/>
    <path id="rect1007-32-1-6" d="M14,4V2h1V4Z" class="aw-theme-iconOutline" fill="#464646"/>
    <path id="rect1007-32-1-2" d="M8,11V9H9v2Z" class="aw-theme-iconOutline" fill="#464646"/>
    <path id="rect1007-32-1-67" d="M10.071,11.913v-2h1v2Z" class="aw-theme-iconOutline" fill="#464646"/>
    <path id="rect1007-32-1-8" d="M14,16V14h1v2Z" class="aw-theme-iconOutline" fill="#464646"/>
    <path id="rect1007-32-1-69" d="M9,22V20h1v2Z" class="aw-theme-iconOutline" fill="#464646"/>
    <path id="rect1007-32-1-1" d="M2,15V13H3v2Z" class="aw-theme-iconOutline" fill="#464646"/>
    <path id="rect1007-32-1-7" d="M21,11V9h1v2Z" class="aw-theme-iconOutline" fill="#464646"/>
    <path id="rect1007-32-1-9" d="M19,15V13h1v2Z" class="aw-theme-iconOutline" fill="#464646"/>
    <path id="rect1007-32-1-82" d="M4,11V9H5v2Z" class="aw-theme-iconOutline" fill="#464646"/>
    <path id="rect1007-32-1-92" d="M9,18V16h1v2Z" class="aw-theme-iconOutline" fill="#464646"/>
  </g>
</svg>
