<?xml version="1.0" encoding="utf-8"?>
<!-- Generator: Adobe Illustrator 16.0.0, SVG Export Plug-In . SVG Version: 6.00 Build 0)  -->
<!DOCTYPE svg PUBLIC "-//W3C//DTD SVG 1.1//EN" "http://www.w3.org/Graphics/SVG/1.1/DTD/svg11.dtd">
<svg version="1.1" id="Livello_1" xmlns="http://www.w3.org/2000/svg" xmlns:xlink="http://www.w3.org/1999/xlink" x="0px" y="0px"
	 width="48px" height="48px" viewBox="0 0 48 48" enable-background="new 0 0 48 48" xml:space="preserve">
<rect y="6" fill="#009999" width="42" height="42"/>
<rect x="6" fill="#9A1E5A" width="42" height="42"/>
<g>
	<g>
		<path fill="#FFFFFF" d="M19.596,27.135h-5.082v4.283h6.014v2.707h-9.276V17.969h9.255v2.719h-5.992v3.817h5.082V27.135z"/>
		<path fill="#FFFFFF" d="M27.463,23.517l2.175-5.548h3.739l-3.795,8.012l3.884,8.145h-3.784l-2.219-5.648l-2.208,5.648h-3.784
			l3.884-8.145l-3.807-8.012h3.74L27.463,23.517z"/>
	</g>
</g>
<g>
	<g>
		<path fill="#EFAAC3" d="M16.729,12.084c0,0.499-0.062,0.938-0.186,1.315s-0.298,0.692-0.521,0.943
			c-0.224,0.251-0.492,0.44-0.807,0.567s-0.663,0.19-1.044,0.19c-0.382,0-0.73-0.063-1.046-0.19
			c-0.316-0.127-0.588-0.316-0.814-0.567s-0.402-0.565-0.528-0.943c-0.125-0.378-0.188-0.816-0.188-1.315v-1.183
			c0-0.512,0.062-0.962,0.186-1.352s0.298-0.714,0.522-0.975c0.226-0.261,0.496-0.458,0.813-0.589
			c0.315-0.132,0.664-0.198,1.046-0.198c0.381,0,0.729,0.066,1.044,0.198s0.585,0.329,0.812,0.589s0.401,0.585,0.525,0.975
			s0.186,0.84,0.186,1.352V12.084z M15.287,10.891c0-0.339-0.024-0.628-0.073-0.868c-0.049-0.239-0.12-0.436-0.215-0.589
			s-0.212-0.266-0.353-0.337c-0.14-0.072-0.301-0.107-0.483-0.107c-0.186,0-0.349,0.036-0.489,0.107
			c-0.14,0.072-0.257,0.184-0.352,0.337s-0.166,0.35-0.215,0.589c-0.05,0.24-0.074,0.529-0.074,0.868v1.193
			c0,0.323,0.024,0.6,0.074,0.829c0.049,0.229,0.121,0.418,0.217,0.564c0.097,0.146,0.216,0.254,0.357,0.322
			c0.142,0.069,0.306,0.104,0.491,0.104c0.183,0,0.343-0.034,0.481-0.104c0.139-0.068,0.255-0.176,0.35-0.322
			s0.165-0.335,0.213-0.564c0.047-0.229,0.07-0.506,0.07-0.829V10.891z"/>
		<path fill="#EFAAC3" d="M22.587,12.632c-0.036,0.812-0.264,1.426-0.685,1.843c-0.421,0.418-1.014,0.626-1.779,0.626
			c-0.395,0-0.747-0.065-1.057-0.195c-0.31-0.131-0.57-0.324-0.782-0.582c-0.212-0.257-0.374-0.576-0.486-0.956
			c-0.112-0.379-0.168-0.816-0.168-1.313v-1.212c0-0.495,0.058-0.934,0.173-1.315c0.116-0.381,0.283-0.701,0.501-0.958
			c0.219-0.258,0.482-0.453,0.792-0.584s0.659-0.198,1.047-0.198c0.775,0,1.364,0.217,1.768,0.65
			c0.402,0.434,0.631,1.056,0.687,1.868h-1.442c-0.007-0.254-0.028-0.467-0.066-0.638c-0.037-0.171-0.095-0.307-0.173-0.408
			s-0.181-0.172-0.306-0.215c-0.126-0.042-0.281-0.063-0.467-0.063c-0.192,0-0.356,0.032-0.491,0.098
			c-0.136,0.065-0.246,0.17-0.33,0.315c-0.085,0.145-0.147,0.335-0.188,0.572s-0.062,0.525-0.062,0.868v1.222
			c0,0.333,0.017,0.616,0.049,0.851c0.033,0.235,0.09,0.427,0.172,0.575c0.081,0.147,0.188,0.256,0.322,0.324
			c0.134,0.069,0.303,0.104,0.509,0.104c0.176,0,0.326-0.02,0.452-0.057c0.125-0.037,0.229-0.104,0.311-0.198
			c0.081-0.094,0.144-0.225,0.186-0.391s0.068-0.377,0.078-0.631H22.587z"/>
	</g>
</g>
<g>
</g>
<g>
</g>
<g>
</g>
<g>
</g>
<g>
</g>
<g>
</g>
</svg>
