<svg id="svg10" xmlns="http://www.w3.org/2000/svg" viewBox="0 0 16 16">
  <g id="g829">
    <path id="path2" d="M7.518.642.318,14.774a.693.693,0,0,0,0,.564.547.547,0,0,0,.453.282h14.4a.512.512,0,0,0,.453-.282.6.6,0,0,0,0-.564L8.451.642a.53.53,0,0,0-.48-.31.492.492,0,0,0-.453.31Z" fill="#dc0000"/>
    <path id="rect4" d="M7.25,5h1.5v6H7.25Z" fill="#fff"/>
    <path id="circle6" d="M9,13a1,1,0,1,1-1-1A1,1,0,0,1,9,13Z" fill="#fff"/>
    <path id="path8" d="M14.863,16H1.137a1.114,1.114,0,0,1-.977-.592,1.265,1.265,0,0,1-.02-1.2h0L7.125.628A1.143,1.143,0,0,1,8.131,0a1.129,1.129,0,0,1,1,.644l6.741,13.584a1.263,1.263,0,0,1-.032,1.188A1.115,1.115,0,0,1,14.863,16ZM1.451,14.81l13.06.016A.225.225,0,0,0,14.7,14.5L8.334,1.566a.207.207,0,0,0-.375,0L1.265,14.475A.226.226,0,0,0,1.451,14.81Z" class="aw-theme-iconOutline" fill="#dc0000"/>
  </g>
</svg>
