<svg id="Layer_1" data-name="Layer 1" xmlns="http://www.w3.org/2000/svg" width="240" height="48" viewBox="0 0 240 48"><title>logoSiemensWhite48</title><path id="Path_7467" data-name="Path 7467" d="M2.423,34.385A27.443,27.443,0,0,0,13.7,37.175c3.516,0,5.638-1.729,5.638-4.577,0-2.233-.839-2.9-7.089-5.47a31.38,31.38,0,0,1-7.589-3.74,8.567,8.567,0,0,1-3.408-7.314A11.719,11.719,0,0,1,5.66,6.588a14.45,14.45,0,0,1,9.1-2.566A38.736,38.736,0,0,1,27.094,6.141l-1.8,7.035a25.734,25.734,0,0,0-9.99-2.341c-3.18,0-5.08,1.562-5.08,4.073,0,2.066.836,2.734,6.531,5.081a32.4,32.4,0,0,1,8.33,4.073,9.3,9.3,0,0,1,3.348,7.814c0,7.868-5.021,12.112-14.289,12.112A35.657,35.657,0,0,1,1.2,41.812Z" fill="#fff"/><path id="Path_7468" data-name="Path 7468" d="M35.471,4.694h8.707V43.317H35.471Z" fill="#fff"/><path id="Path_7469" data-name="Path 7469" d="M53.353,4.694H77.79V11.5H62.06v8.819H77.017v6.809H62.06V36.5H78.636v6.81H53.353Z" fill="#fff"/><path id="Path_7470" data-name="Path 7470" d="M86.078,4.694H98.966l6.7,20.876c.783,2.568,1.34,4.409,2.233,7.814.9-3.348,1.394-5.249,2.233-7.814l6.741-20.876h12.8V43.317H121.3V12.061c-.842,3.348-1.01,3.851-2.122,7.367l-7.76,23.889h-7.433l-7.53-23.274L95.675,17.7c-.222-.669-.446-1.454-.668-2.176L94.56,13.85c-.114-.6-.282-1.172-.446-1.8V43.32H86.081V4.694Z" fill="#fff"/><path id="Path_7471" data-name="Path 7471" d="M138.854,4.694H163.3V11.5H147.562v8.819h14.956v6.809H147.562V36.5h16.575v6.81H138.854Z" fill="#fff"/><path id="Path_7472" data-name="Path 7472" d="M171.576,4.694h9.591l10.272,17.357a94.024,94.024,0,0,1,4.745,9.1c-.168-2.233-.168-2.791-.168-7.368V4.694h8.371V43.317h-9.423l-9.657-16.186c-2.623-4.466-3.459-6.081-5.527-10.325.167,3.234.167,3.683.167,9.21v17.3h-8.371Z" fill="#fff"/><path id="Path_7473" data-name="Path 7473" d="M212.792,34.388a27.445,27.445,0,0,0,11.291,2.787c3.516,0,5.635-1.729,5.635-4.577,0-2.233-.837-2.9-7.086-5.47a31.566,31.566,0,0,1-7.595-3.74,8.572,8.572,0,0,1-3.405-7.314,11.716,11.716,0,0,1,4.409-9.486,14.448,14.448,0,0,1,9.082-2.563,38.708,38.708,0,0,1,12.334,2.119l-1.8,7.035a25.734,25.734,0,0,0-9.99-2.341c-3.18,0-5.077,1.562-5.077,4.073,0,2.066.836,2.734,6.525,5.081a32.342,32.342,0,0,1,8.318,4.073,9.3,9.3,0,0,1,3.348,7.814c0,7.868-5.021,12.112-14.289,12.112a35.657,35.657,0,0,1-12.948-2.176Z" fill="#fff"/><rect width="240" height="48" fill="none"/></svg>